<svg xmlns="http://www.w3.org/2000/svg" xmlns:svg="http://www.w3.org/2000/svg" id="svg4" aria-hidden="true" class="svg-inline--fa fa-pizza-slice fa-w-16" data-icon="pizza-slice" data-prefix="fas" focusable="false" role="img" version="1.1" viewBox="0 0 512 512"><metadata id="metadata10"/><rect style="fill:#f5f5f6;fill-opacity:1;stroke:#d8dde0;stroke-width:3.77952766;stroke-miterlimit:4;stroke-dasharray:none;stroke-opacity:1" id="rect817" width="1717.153" height="1092.339" x="-602.576" y="-290.169"/><path id="path2" d="m 235.62851,202.1526 c -3.38906,-0.31992 -6.54323,1.7722 -7.40937,5.07666 l -3.10593,11.84344 c 39.34747,1.15551 65.965,27.49017 67.63017,66.72064 l 11.9414,-3.32129 c 3.29677,-0.91767 5.34573,-4.14216 4.95356,-7.55606 -4.37894,-38.04972 -35.85985,-69.14953 -74.00983,-72.76339 z m -12.26226,23.57322 -20.94044,79.87325 a 3.3995443,3.4118034 0 0 0 4.19438,4.15688 L 286.10367,287.635 c -0.8955,-36.81001 -25.8122,-61.48823 -62.73742,-61.90076 z m 5.78824,63.9529 a 6.7110067,6.7352075 0 1 1 6.711,-6.73521 6.7110067,6.7352075 0 0 1 -6.711,6.73521 z M 239.221,257.68648 a 6.7110067,6.7352075 0 1 1 6.71101,-6.7352 6.7110067,6.7352075 0 0 1 -6.71101,6.7352 z m 21.81077,21.88943 a 6.7110067,6.7352075 0 1 1 6.71101,-6.73521 6.7110067,6.7352075 0 0 1 -6.71101,6.73521 z" style="fill:#d9cfbe;fill-opacity:1;stroke-width:.21009675"/></svg>